<?xml version="1.0" standalone="no"?><!DOCTYPE svg PUBLIC "-//W3C//DTD SVG 1.1//EN" "http://www.w3.org/Graphics/SVG/1.1/DTD/svg11.dtd"><svg t="1499597647954" class="icon" style="" viewBox="0 0 5852 1024" version="1.1" xmlns="http://www.w3.org/2000/svg" p-id="14132" xmlns:xlink="http://www.w3.org/1999/xlink" width="182.875" height="32"><defs><style type="text/css"></style></defs><path d="M5806.823471 550.343773 5492.174137 550.343773 5492.174137 886.71576C5492.174137 886.71576 5494.258634 994.597622 5370.285918 994.597622 5293.890932 994.597622 5251.542731 937.47509 5251.542731 937.47509L5124.973537 792.584265 5124.973537 792.620835C5124.973537 792.620835 5098.606478 763.108746 5063.938002 810.979036 5052.345273 827.03332 4984.105425 929.868505 4984.105425 929.868505 4984.105425 929.868505 4950.534052 977.373094 4892.314417 941.424663 4848.649691 914.435913 4857.901932 878.048641 4869.604371 856.399129 4877.064676 842.685333 4961.249098 719.882861 4961.249098 719.882861 4961.249098 719.882861 4991.419449 668.209278 5053.808078 661.846077 5118.720046 655.226885 5149.109818 692.455269 5149.109818 692.455269L5314.443341 879.328595C5328.047427 893.554373 5335.727153 891.652727 5340.078997 890.921324 5354.048784 888.580836 5356.425842 876.073855 5356.718403 869.856934L5356.718403 550.343773 5191.75058 550.343773C5191.238599 550.343773 5190.726617 550.343773 5190.214635 550.307203L5172.368415 550.307203C5043.422163 550.307203 4938.941324 445.058391 4938.941324 315.234456 4938.941324 189.030963 5037.753795 86.012928 5161.72651 80.417699 5163.299025 80.271419 5743.410878 80.198279 5743.410878 80.198279 5767.91286 80.198279 5787.807007 100.202136 5787.807007 124.923538 5787.807007 149.644941 5767.91286 169.648798 5743.410878 169.648798L5226.821328 169.795079C5132.506982 169.795079 5073.482804 225.015964 5073.482804 319.988572 5073.482804 409.329381 5125.741509 456.102568 5210.437913 461.295525L5356.718403 461.295525 5356.718403 318.086925 5356.791543 318.086925C5356.791543 317.904075 5356.791543 317.757794 5356.791543 317.611514 5357.742366 280.821971 5387.656727 251.236742 5424.4097 251.236742 5461.052962 251.236742 5490.857612 280.56598 5492.027856 317.172672 5492.027856 317.465233 5492.064426 317.757794 5492.100996 318.086925L5492.174137 318.086925 5492.174137 461.295525 5806.823471 461.295525C5831.362023 461.295525 5851.256169 481.226242 5851.256169 505.837934 5851.256169 530.413057 5831.362023 550.343773 5806.823471 550.343773ZM4728.114567 441.218528 3869.1921 441.218528 3805.523517 441.218528C3780.984965 441.218528 3761.090818 421.178101 3761.090818 396.456698 3761.090818 371.771865 3780.984965 351.731438 3805.523517 351.731438L3945.404236 351.731438 3945.404236 307.006178C3945.404236 269.265812 3975.757437 238.69319 4013.205243 238.69319 4013.644084 238.69319 4014.046355 238.72976 4014.485197 238.72976 4051.34788 239.424592 4081.00625 269.704653 4081.00625 307.006178L4081.00625 351.731438 4452.631835 351.731438 4452.631835 307.006178C4452.631835 269.265812 4482.985036 238.69319 4520.432842 238.69319L4520.432842 238.69319C4521.456805 238.69319 4522.444198 238.72976 4523.431592 238.76633 4559.489733 240.375415 4588.233849 270.289775 4588.233849 307.006178L4588.233849 351.731438 4728.114567 351.731438C4752.65312 351.731438 4772.547266 371.771865 4772.547266 396.456698 4772.547266 421.178101 4752.65312 441.218528 4728.114567 441.218528ZM4647.879719 184.752259 3885.758366 184.752259C3861.219814 184.752259 3841.325667 164.711832 3841.325667 140.026999 3841.325667 115.305596 3861.219814 95.265169 3885.758366 95.265169L4199.018035 95.265169 4199.018035 71.860291C4199.018035 34.156494 4229.371237 3.583872 4266.819042 3.583872 4304.266848 3.583872 4334.620049 34.156494 4334.620049 71.860291L4334.620049 95.265169 4647.879719 95.265169C4672.418271 95.265169 4692.275847 115.305596 4692.275847 140.026999 4692.275847 164.711832 4672.418271 184.752259 4647.879719 184.752259ZM3625.927645 1022.902896 3599.597157 1022.902896C3599.121746 1022.902896 3598.682904 1022.976037 3598.170922 1022.976037L2747.513303 1022.976037C2747.037892 1022.976037 2746.56248 1022.902896 2746.087068 1022.902896L2719.75658 1022.902896C2695.218028 1022.902896 2675.323881 1002.862469 2675.323881 978.177637 2675.323881 953.456234 2695.218028 933.452377 2719.75658 933.452377L3105.132531 933.452377 3105.132531 808.382558 2834.550195 808.382558C2810.011642 808.382558 2790.117496 788.342131 2790.117496 763.620728 2790.117496 738.935895 2810.011642 718.895468 2834.550195 718.895468L3105.132531 718.895468 3105.132531 589.839506 2983.792865 589.839506C2871.047177 589.839506 2721.585086 504.375129 2721.585086 334.945752L2721.585086 258.806757C2721.585086 104.297989 2871.047177 3.913003 2983.792865 3.913003L3356.661834 3.913003C3469.370951 3.913003 3618.833042 104.297989 3618.833042 258.806757L3618.833042 334.945752C3618.833042 504.375129 3469.370951 589.839506 3356.661834 589.839506L3240.551695 589.839506 3240.551695 718.895468 3511.134031 718.895468C3535.672583 718.895468 3555.56673 738.935895 3555.56673 763.620728 3555.56673 788.342131 3535.672583 808.382558 3511.134031 808.382558L3240.551695 808.382558 3240.551695 933.452377 3625.927645 933.452377C3650.466198 933.452377 3670.360344 953.456234 3670.360344 978.177637 3670.360344 1002.862469 3650.466198 1022.902896 3625.927645 1022.902896ZM3105.132531 341.272383 3016.011142 341.272383C2991.47259 341.272383 2971.578444 321.231956 2971.578444 296.547123 2971.578444 271.825721 2991.47259 251.785293 3016.011142 251.785293L3105.132531 251.785293 3105.132531 92.997822 3020.180136 92.997822C2929.705653 92.997822 2858.101354 166.869469 2858.101354 257.965644L2858.101354 335.384593C2858.101354 426.517339 2931.461019 500.352416 3021.898932 500.352416L3105.132531 500.352416 3105.132531 341.272383ZM3318.519196 500.352416C3408.957109 500.352416 3482.316774 426.517339 3482.316774 335.384593L3482.316774 257.965644C3482.316774 166.869469 3417.697368 92.997822 3327.259455 92.997822L3240.551695 92.997822 3240.551695 251.785293 3329.709653 251.785293C3354.248205 251.785293 3374.142352 271.825721 3374.142352 296.547123 3374.142352 321.231956 3354.248205 341.272383 3329.709653 341.272383L3240.551695 341.272383 3240.551695 500.352416 3318.519196 500.352416ZM2568.429413 93.034392 2527.617157 93.034392 2527.617157 838.735759C2527.800007 841.661369 2528.019428 844.550409 2528.019428 847.476019 2528.019428 850.87704 2527.763437 854.095211 2527.617157 857.386522L2527.617157 860.421842 2527.507446 860.421842C2517.450662 1023.780579 2301.248098 1024.585122 2274.332488 1023.85372 2274.113067 1023.85372 2273.893647 1023.92686 2273.637656 1023.92686 2273.198814 1023.92686 2272.796543 1023.817149 2272.357702 1023.780579 2271.84572 1023.780579 2271.443448 1023.744009 2271.297168 1023.744009L2271.297168 1023.670869C2251.329881 1022.427485 2235.385308 1005.861219 2235.385308 985.418521 2235.385308 964.134709 2252.536695 946.873612 2273.637656 946.873612 2274.039927 946.873612 2274.405628 946.983322 2274.8079 946.983322L2274.8079 946.910182C2279.525446 947.714724 2382.909182 956.601264 2392.197993 829.776079L2392.197993 93.034392 1992.486554 93.034392C1967.948002 93.034392 1948.090425 72.993965 1948.090425 48.309132 1948.090425 23.587729 1967.948002 3.583872 1992.486554 3.583872L2568.429413 3.583872C2592.967965 3.583872 2612.825542 23.587729 2612.825542 48.309132 2612.825542 72.993965 2592.967965 93.034392 2568.429413 93.034392ZM1724.646977 844.95268C1724.354416 844.95268 1720.916824 844.76983 1720.916824 844.76983 1701.242098 843.233885 1685.699796 826.88704 1685.699796 806.700332 1685.699796 786.001643 1702.010071 769.215957 1722.379629 768.484554L1722.416199 768.338274C1748.600407 764.022999 1751.123746 726.904325 1751.123746 704.63312 1751.123746 704.63312 1751.014035 514.578194 1751.014035 514.139352 1751.014035 456.980251 1720.916824 454.018071 1720.916824 454.018071 1701.863791 451.860434 1686.979751 435.76958 1686.979751 415.985143 1686.979751 395.688725 1702.631763 379.26874 1722.379629 377.805936L1722.416199 377.440234C1726.841184 378.244777 1750.867755 374.039213 1750.867755 338.895325L1750.867755 183.472305C1750.575194 166.576908 1750.392343 154.801329 1750.392343 153.813935 1750.392343 120.315703 1740.884111 93.144102 1707.6053 93.144102 1674.326488 93.144102 1664.781686 120.315703 1664.781686 153.813935 1664.781686 157.032106 1664.123424 244.654119 1663.867433 288.428556L1663.867433 952.43227C1663.940574 953.712225 1663.977144 954.992179 1663.977144 956.272133 1663.977144 993.646798 1633.879933 1024 1596.761259 1024 1559.642584 1024 1529.545373 993.646798 1529.545373 956.272133 1529.545373 955.43102 1529.581944 954.589908 1529.581944 953.712225L1529.581944 161.457091C1529.581944 161.31081 1529.581944 161.23767 1529.581944 161.12796 1529.581944 161.018249 1529.581944 160.945109 1529.581944 160.835399L1529.581944 160.250277 1529.618514 160.250277C1530.167065 73.615657 1609.816792 3.583872 1708.044141 3.583872 1806.564051 3.583872 1886.469769 74.091068 1886.469769 161.12796L1886.469769 310.187779C1886.469769 367.602871 1858.786186 402.125067 1826.092497 422.970037 1858.786186 442.937324 1886.469769 476.728117 1886.469769 534.143209L1886.469769 701.085818C1886.469769 829.008107 1749.222099 843.709296 1724.646977 844.95268ZM1243.347595 676.144995C1223.197457 676.144995 1206.850612 659.68844 1206.850612 639.355452 1206.850612 619.059034 1223.197457 602.565908 1243.347595 602.565908 1263.497732 602.565908 1279.844577 619.059034 1279.844577 639.355452 1279.844577 659.68844 1263.497732 676.144995 1243.347595 676.144995ZM1121.166815 1024C1107.416449 1024 1096.299132 1012.772972 1096.299132 998.912896L1096.299132 552.720831C1096.299132 538.897325 1107.416449 527.633727 1121.166815 527.633727 1134.917182 527.633727 1146.071069 538.897325 1146.071069 552.720831L1146.071069 998.912896C1146.071069 1012.772972 1134.917182 1024 1121.166815 1024ZM507.959001 1024C227.429592 1024 0 794.741902 0 511.981715 0 229.221528 227.429592 0 507.959001 0 788.488411 0 1015.918003 229.221528 1015.918003 511.981715L1015.918003 1008.677119 824.729403 912.205136C737.875362 982.16378 627.762723 1024 507.959001 1024ZM507.959001 331.25217C408.89054 331.25217 328.619121 412.181851 328.619121 511.981715 328.619121 611.818149 408.89054 692.74783 507.959001 692.74783 606.990893 692.74783 687.298882 611.818149 687.298882 511.981715 687.298882 412.181851 606.990893 331.25217 507.959001 331.25217ZM507.959001 548.515267C487.808864 548.515267 471.462019 532.022142 471.462019 511.725724 471.462019 491.392736 487.808864 474.936181 507.959001 474.936181 528.109139 474.936181 544.455984 491.392736 544.455984 511.725724 544.455984 532.022142 528.109139 548.515267 507.959001 548.515267ZM1243.347595 716.298989C1258.012214 716.298989 1269.897504 728.257419 1269.897504 743.031749L1269.897504 997.23067C1269.897504 1012.005 1258.012214 1024 1243.347595 1024 1228.682976 1024 1216.797686 1012.005 1216.797686 997.23067L1216.797686 743.031749C1216.797686 728.257419 1228.682976 716.298989 1243.347595 716.298989ZM2150.615764 198.136924C2251.988143 197.917503 2334.307489 280.52941 2334.49034 382.596622L2334.819471 581.867219C2335.038891 683.971001 2253.048677 766.838899 2151.676297 767.021749 2050.340488 767.24117 1968.021142 684.629263 1967.838291 582.562051L1967.692011 503.570587 1967.655441 503.570587 1967.655441 486.272919 1967.47259 383.254884C1967.25317 281.187672 2049.279954 198.319774 2150.615764 198.136924ZM2103.294025 610.574765C2103.294025 653.983501 2121.871647 671.57373 2151.164316 671.57373 2184.735688 671.57373 2198.998036 653.983501 2198.998036 610.574765L2198.998036 354.547338C2198.998036 311.175172 2178.335917 293.584943 2151.164316 293.584943 2123.627013 293.584943 2103.294025 311.175172 2103.294025 354.547338L2103.294025 610.574765ZM4086.272347 515.382736 4447.365737 515.382736C4586.551623 515.382736 4699.370451 629.006107 4699.370451 769.179386 4699.370451 909.352666 4586.551623 1022.976037 4447.365737 1022.976037L4086.272347 1022.976037C3947.086461 1022.976037 3834.267633 909.352666 3834.267633 769.179386 3834.267633 629.006107 3947.086461 515.382736 4086.272347 515.382736ZM4135.605443 942.375487 4398.032642 942.375487C4499.843863 942.375487 4564.938681 876.841827 4564.938681 774.299204 4564.938681 671.75658 4499.843863 606.18635 4398.032642 606.18635L4135.605443 606.18635C4033.794222 606.18635 3968.662833 671.75658 3968.662833 774.299204 3968.662833 876.841827 4033.794222 942.375487 4135.605443 942.375487ZM4135.349452 724.454127 4398.288633 724.454127C4422.790615 724.454127 4442.684761 744.457984 4442.684761 769.179386 4442.684761 793.900789 4422.790615 813.904646 4398.288633 813.904646L4135.349452 813.904646C4110.8109 813.904646 4090.916753 793.900789 4090.916753 769.179386 4090.916753 744.457984 4110.8109 724.454127 4135.349452 724.454127ZM5718.031213 735.461734 5831.727724 883.936431C5854.43777 913.66794 5848.915682 956.345273 5819.403593 979.2016 5789.854934 1002.094497 5747.506732 996.535838 5724.760116 966.804328L5611.100175 818.329631C5588.390129 788.598121 5593.912217 745.920789 5623.424306 723.027892 5652.972965 700.171565 5695.321167 705.730224 5718.031213 735.461734Z" p-id="14133" fill="#008080"></path></svg>