<?xml version="1.0" standalone="no"?><!DOCTYPE svg PUBLIC "-//W3C//DTD SVG 1.1//EN" "http://www.w3.org/Graphics/SVG/1.1/DTD/svg11.dtd"><svg t="1499517145495" class="icon" style="" viewBox="0 0 2090 1024" version="1.1" xmlns="http://www.w3.org/2000/svg" p-id="8646" xmlns:xlink="http://www.w3.org/1999/xlink" width="65.3125" height="32"><defs><style type="text/css"></style></defs><path d="M0 752.8V270.2h146l87.7 329.5 86.7-329.5h146.4v482.7h-91V372.8l-95.9 380.1h-93.9l-95.4-380.1v380.1h-90.6zM562.6 270.2h97.3v261.6c0 41.4 1.4 68.4 3.9 80.4 4.3 19.7 14 35.6 29.9 47.7 15.9 12 37.1 17.8 64.5 17.8 27.5 0 48.7-5.8 62.6-16.9s22.6-25 25.5-41.4c2.9-16.4 4.3-43.8 4.3-81.9V270.7h97.3V524c0 57.8-2.4 98.7-7.7 122.8S925.3 691.1 911.3 707.5c-14 16.4-33.2 29.4-56.8 39.5-23.6 10.1-54.4 14.5-93 14.5-46.2 0-80.9-5.3-105-15.9C632.9 735 613.6 721 600.1 704.2c-14-16.9-23.1-34.7-27.5-53.5-6.3-27.5-9.6-68.4-9.6-122.4V270.2h-0.4zM1025.6 595.8l94.9-9.2c5.8 31.8 17.3 55.4 34.7 70.3 17.3 14.9 40.9 22.2 70.8 22.2 31.3 0 54.9-6.7 70.8-19.7 15.9-13.5 24.1-28.9 24.1-46.7 0-11.6-3.4-21.2-10.1-28.9-6.7-8.2-18.3-14.9-35.2-20.7-11.6-3.9-37.6-11.1-78-21.2-52-13-89.1-28.9-109.8-47.7-29.9-26.5-44.3-58.8-44.3-97.3 0-24.6 6.7-47.7 20.7-68.9 14-21.2 34.2-37.6 60.2-49.1 26-11.1 57.8-16.9 94.9-16.9 60.7 0 106 13.5 136.8 40 30.8 26.5 46.7 62.1 48.2 106.5l-97.3 4.3c-4.3-24.6-13-42.9-27-53.5-13.5-11.1-34.2-16.4-61.7-16.4-28.4 0-50.6 5.8-66.5 17.3-10.1 7.2-15.4 17.3-15.4 29.9 0 11.6 4.8 21.2 14.5 29.4 12.5 10.1 42.4 21.2 89.6 32.3 47.2 11.1 82.4 22.6 105 34.7 22.6 12 40.5 28.4 53.5 49.1 13 20.7 19.3 46.2 19.3 77.1 0 27.5-7.7 53.5-23.1 77.6-15.4 24.1-37.1 41.9-65 53.9-27.9 11.6-63.1 17.8-105 17.8-61.2 0-107.9-14-140.7-42.4-33.4-28.9-52.7-69.8-58.9-123.8zM1497.1 752.8V270.2h97.3v482.7h-97.3zM1996.2 575.1l94.4 29.9c-14.5 52.5-38.5 92-72.3 117.5-33.7 25.5-76.6 38.5-128.1 38.5-64.1 0-116.6-21.7-158-65.5s-62.1-103.6-62.1-179.7c0-80.4 20.7-142.6 62.1-187.4s95.9-66.5 163.8-66.5c59.2 0 106.9 17.3 144 52.5 22.2 20.7 38.5 50.1 49.6 89.1l-96.3 23.1c-5.8-25-17.8-44.8-35.6-59.2-17.8-14.5-40-21.7-66-21.7-35.6 0-65 13-87.2 38.5-22.2 25.5-33.2 67.4-33.2 124.8 0 61.2 11.1 104.5 32.8 130.5 22.2 26 50.6 39 85.7 39 26 0 48.2-8.2 67-24.6 17.7-17.6 31.2-43.2 39.4-78.8z" p-id="8647" fill="#cca224"></path></svg>