<?xml version="1.0" standalone="no"?><!DOCTYPE svg PUBLIC "-//W3C//DTD SVG 1.1//EN" "http://www.w3.org/Graphics/SVG/1.1/DTD/svg11.dtd"><svg t="1499517164486" class="icon" style="" viewBox="0 0 1059 1024" version="1.1" xmlns="http://www.w3.org/2000/svg" p-id="8798" xmlns:xlink="http://www.w3.org/1999/xlink" width="33.09375" height="32"><defs><style type="text/css"></style></defs><path d="M904.082797 147.468531C813.775665 52.488951 687.68 4.294266 529.219581 4.294266 370.819581 4.294266 244.280839 52.448671 153.147971 147.408112-4.728392 311.82993 3.347692 555.602797 3.750489 565.894266 4.314406 579.730349 11.645315 591.492029 22.4 598.540979 21.755524 829.122238 94.178462 970.101258 97.461259 976.384895 101.287832 983.675525 108.739581 987.844475 116.412867 987.844475 119.756084 987.844475 123.17986 987.059021 126.361958 985.407552 136.834686 979.92951 140.882797 966.979581 135.445035 956.486713 134.659581 955.056783 65.197203 818.850909 65.277762 599.970909 78.288112 592.55944 86.887832 578.501818 86.223217 562.530909 86.122518 560.355804 78.932587 343.892587 212.681399 204.565035 287.662097 126.462657 394.161678 86.867692 529.219581 86.867692 663.914965 86.867692 769.79021 126.261258 843.844475 203.940699 975.820979 342.402238 967.06014 559.993287 966.939301 562.107971 966.194126 576.608671 973.081958 589.699581 984.038042 597.614545 984.642238 817.924475 914.615944 955.056783 913.890909 956.486713 908.392727 966.979581 912.460979 979.92951 922.933706 985.407552 926.135944 987.059021 929.51944 987.844475 932.862657 987.844475 940.576223 987.844475 948.007832 983.675525 951.834405 976.384895 955.137343 970.141539 1026.996364 830.028531 1026.875525 600.836923 1039.563636 594.311608 1048.606434 581.583217 1049.391888 566.317203 1049.915525 556.005595 1060.448671 312.071608 904.082797 147.468531" p-id="8799" fill="#cca224"></path><path d="M232.780979 575.722517C232.780979 575.722517 134.599161 600.353566 142.393287 755.772867 150.207552 911.212308 211.493147 1037.166993 298.638322 1020.28979 385.763357 1003.432727 343.630769 915.421539 334.265734 863.078042 325.384056 813.332587 312.293147 737.888671 313.662657 668.88951 314.206434 641.036084 300.914126 559.812029 232.780979 575.722517" p-id="8800" fill="#cca224"></path><path d="M824.127552 575.722517C824.127552 575.722517 922.30937 600.353566 914.535384 755.772867 906.721119 911.212308 845.415384 1037.166993 758.290349 1020.28979 671.125035 1003.432727 713.277762 915.421539 722.642797 863.078042 731.504335 813.332587 744.615384 737.888671 743.225734 668.88951 742.702097 641.036084 756.014545 559.812029 824.127552 575.722517" p-id="8801" fill="#cca224"></path></svg>